{
  "accessors": [
    {
      "bufferView": 2,
      "componentType": 5126,
      "count": 589,
      "max": [
        0.510197103023529,
        0.5407823324203491,
        0.510197103023529
      ],
      "min": [
        -0.510197103023529,
        -0.5,
        -0.510197103023529
      ],
      "type": "VEC3"
    },
    {
      "bufferView": 2,
      "byteOffset": 7068,
      "componentType": 5126,
      "count": 589,
      "max": [
        0.9999976754188538,
        0.9999989867210388,
        0.9999976754188538
      ],
      "min": [
        -0.9999976754188538,
        -0.999999463558197,
        -0.9999976754188538
      ],
      "type": "VEC3"
    },
    {
      "bufferView": 1,
      "componentType": 5126,
      "count": 589,
      "max": [
        0.9931034445762634,
        0.49238497018814087
      ],
      "min": [
        0.006896555423736572,
        0.003419339656829834
      ],
      "type": "VEC2"
    },
    {
      "bufferView": 0,
      "componentType": 5125,
      "count": 3099,
      "type": "SCALAR"
    },
    {
      "bufferView": 2,
      "byteOffset": 14136,
      "componentType": 5126,
      "count": 686,
      "max": [
        0.5211241245269775,
        0.5516700148582458,
        0.5211241245269775
      ],
      "min": [
        -0.5211241245269775,
        -0.5108351707458496,
        -0.5211241245269775
      ],
      "type": "VEC3"
    },
    {
      "bufferView": 2,
      "byteOffset": 22368,
      "componentType": 5126,
      "count": 686,
      "max": [
        0.9999960660934448,
        0.9999990463256836,
        0.9999960660934448
      ],
      "min": [
        -0.9999960660934448,
        -0.9999991059303284,
        -0.9999960660934448
      ],
      "type": "VEC3"
    },
    {
      "bufferView": 1,
      "byteOffset": 4712,
      "componentType": 5126,
      "count": 686,
      "max": [
        0.8750000596046448,
        1.0
      ],
      "min": [
        -0.0,
        0.0
      ],
      "type": "VEC2"
    },
    {
      "bufferView": 0,
      "byteOffset": 12396,
      "componentType": 5125,
      "count": 3108,
      "type": "SCALAR"
    },
    {
      "bufferView": 2,
      "byteOffset": 30600,
      "componentType": 5126,
      "count": 148,
      "max": [
        0.5,
        0.0024269521236419678,
        2.0
      ],
      "min": [
        -0.5,
        -0.5,
        -0.5
      ],
      "type": "VEC3"
    },
    {
      "bufferView": 2,
      "byteOffset": 32376,
      "componentType": 5126,
      "count": 148,
      "max": [
        0.98451167345047,
        1.0,
        0.982692539691925
      ],
      "min": [
        -0.98451167345047,
        -0.9998248815536499,
        -0.9829242825508118
      ],
      "type": "VEC3"
    },
    {
      "bufferView": 1,
      "byteOffset": 10200,
      "componentType": 5126,
      "count": 148,
      "max": [
        0.875,
        1.0
      ],
      "min": [
        0.125,
        -0.0
      ],
      "type": "VEC2"
    },
    {
      "bufferView": 0,
      "byteOffset": 24828,
      "componentType": 5125,
      "count": 420,
      "type": "SCALAR"
    },
    {
      "bufferView": 2,
      "byteOffset": 34152,
      "componentType": 5126,
      "count": 148,
      "max": [
        0.5,
        0.0024269521236419678,
        2.0
      ],
      "min": [
        -0.5,
        -0.5,
        -0.5
      ],
      "type": "VEC3"
    },
    {
      "bufferView": 2,
      "byteOffset": 35928,
      "componentType": 5126,
      "count": 148,
      "max": [
        0.98451167345047,
        1.0,
        0.982692539691925
      ],
      "min": [
        -0.98451167345047,
        -0.9998248815536499,
        -0.9829242825508118
      ],
      "type": "VEC3"
    },
    {
      "bufferView": 1,
      "byteOffset": 11384,
      "componentType": 5126,
      "count": 148,
      "max": [
        0.875,
        1.0
      ],
      "min": [
        0.125,
        -0.0
      ],
      "type": "VEC2"
    },
    {
      "bufferView": 0,
      "byteOffset": 26508,
      "componentType": 5125,
      "count": 420,
      "type": "SCALAR"
    },
    {
      "bufferView": 2,
      "byteOffset": 37704,
      "componentType": 5126,
      "count": 195,
      "max": [
        0.782872200012207,
        0.5,
        0.7828744649887085
      ],
      "min": [
        -0.7828779220581055,
        -0.5240561962127686,
        -0.7828744649887085
      ],
      "type": "VEC3"
    },
    {
      "bufferView": 2,
      "byteOffset": 40044,
      "componentType": 5126,
      "count": 195,
      "max": [
        0.99776691198349,
        1.0,
        0.9996846914291382
      ],
      "min": [
        -0.9978491067886353,
        -0.9999828934669495,
        -0.9996846318244934
      ],
      "type": "VEC3"
    },
    {
      "bufferView": 1,
      "byteOffset": 12568,
      "componentType": 5126,
      "count": 195,
      "max": [
        0.875,
        1.0
      ],
      "min": [
        0.125,
        -0.0
      ],
      "type": "VEC2"
    },
    {
      "bufferView": 0,
      "byteOffset": 28188,
      "componentType": 5125,
      "count": 588,
      "type": "SCALAR"
    },
    {
      "bufferView": 2,
      "byteOffset": 42384,
      "componentType": 5126,
      "count": 195,
      "max": [
        0.782872200012207,
        0.5,
        0.7828744649887085
      ],
      "min": [
        -0.7828779220581055,
        -0.5240561962127686,
        -0.7828744649887085
      ],
      "type": "VEC3"
    },
    {
      "bufferView": 2,
      "byteOffset": 44724,
      "componentType": 5126,
      "count": 195,
      "max": [
        0.99776691198349,
        1.0,
        0.9996846914291382
      ],
      "min": [
        -0.9978491067886353,
        -0.9999828934669495,
        -0.9996846318244934
      ],
      "type": "VEC3"
    },
    {
      "bufferView": 1,
      "byteOffset": 14128,
      "componentType": 5126,
      "count": 195,
      "max": [
        0.875,
        1.0
      ],
      "min": [
        0.125,
        -0.0
      ],
      "type": "VEC2"
    },
    {
      "bufferView": 0,
      "byteOffset": 30540,
      "componentType": 5125,
      "count": 588,
      "type": "SCALAR"
    }
  ],
  "asset": {
    "extras": {
      "author": "PolyChromic (https://sketchfab.com/PolyChromicDesing)",
      "license": "CC-BY-4.0 (http://creativecommons.org/licenses/by/4.0/)",
      "source": "https://sketchfab.com/3d-models/marshmallow-48290f2ff86f45e79e86b6e7576befd2",
      "title": "Marshmallow"
    },
    "generator": "Sketchfab-12.66.0",
    "version": "2.0"
  },
  "bufferViews": [
    {
      "buffer": 0,
      "byteLength": 32892,
      "name": "floatBufferViews",
      "target": 34963
    },
    {
      "buffer": 0,
      "byteLength": 15688,
      "byteOffset": 32892,
      "byteStride": 8,
      "name": "floatBufferViews",
      "target": 34962
    },
    {
      "buffer": 0,
      "byteLength": 47064,
      "byteOffset": 48580,
      "byteStride": 12,
      "name": "floatBufferViews",
      "target": 34962
    }
  ],
  "buffers": [
    {
      "byteLength": 95644,
      "uri": "menuzef.bin"
    }
  ],
  "extensionsUsed": [
    "KHR_materials_unlit"
  ],
  "images": [
    {
      "uri": "textures/lambert2_baseColor.png"
    }
  ],
  "materials": [
    {
      "doubleSided": true,
      "extensions": {
        "KHR_materials_unlit": {}
      },
      "name": "lambert2",
      "pbrMetallicRoughness": {
        "baseColorTexture": {
          "index": 0
        },
        "metallicFactor": 0.0
      }
    },
    {
      "extensions": {
        "KHR_materials_unlit": {}
      },
      "name": "lambert3",
      "pbrMetallicRoughness": {
        "baseColorFactor": [
          1.0,
          0.9386621779017403,
          0.5978448804492565,
          1.0
        ],
        "metallicFactor": 0.0
      }
    },
    {
      "doubleSided": true,
      "extensions": {
        "KHR_materials_unlit": {}
      },
      "name": "lambert4",
      "pbrMetallicRoughness": {
        "baseColorFactor": [
          0.0,
          0.0,
          0.0,
          1.0
        ],
        "metallicFactor": 0.0
      }
    }
  ],
  "meshes": [
    {
      "name": "pCube1_lambert2_0",
      "primitives": [
        {
          "attributes": {
            "NORMAL": 1,
            "POSITION": 0,
            "TEXCOORD_0": 2
          },
          "indices": 3,
          "material": 0,
          "mode": 4
        }
      ]
    },
    {
      "name": "pCube2_lambert3_0",
      "primitives": [
        {
          "attributes": {
            "NORMAL": 5,
            "POSITION": 4,
            "TEXCOORD_0": 6
          },
          "indices": 7,
          "material": 1,
          "mode": 4
        }
      ]
    },
    {
      "name": "Ice_Cube_V2:pCube3_lambert4_0",
      "primitives": [
        {
          "attributes": {
            "NORMAL": 9,
            "POSITION": 8,
            "TEXCOORD_0": 10
          },
          "indices": 11,
          "material": 2,
          "mode": 4
        }
      ]
    },
    {
      "name": "Ice_Cube_V2:pCube4_lambert4_0",
      "primitives": [
        {
          "attributes": {
            "NORMAL": 13,
            "POSITION": 12,
            "TEXCOORD_0": 14
          },
          "indices": 15,
          "material": 2,
          "mode": 4
        }
      ]
    },
    {
      "name": "Ice_Cube_V2:pCube6_lambert4_0",
      "primitives": [
        {
          "attributes": {
            "NORMAL": 17,
            "POSITION": 16,
            "TEXCOORD_0": 18
          },
          "indices": 19,
          "material": 2,
          "mode": 4
        }
      ]
    },
    {
      "name": "pCube6_lambert4_0",
      "primitives": [
        {
          "attributes": {
            "NORMAL": 21,
            "POSITION": 20,
            "TEXCOORD_0": 22
          },
          "indices": 23,
          "material": 2,
          "mode": 4
        }
      ]
    }
  ],
  "nodes": [
    {
      "children": [
        1
      ],
      "matrix": [
        1.0,
        0.0,
        0.0,
        0.0,
        0.0,
        2.220446049250313e-16,
        -1.0,
        0.0,
        0.0,
        1.0,
        2.220446049250313e-16,
        0.0,
        0.0,
        0.0,
        0.0,
        1.0
      ],
      "name": "Sketchfab_model"
    },
    {
      "children": [
        2
      ],
      "matrix": [
        1.0,
        0.0,
        0.0,
        0.0,
        0.0,
        0.0,
        1.0,
        0.0,
        0.0,
        -1.0,
        0.0,
        0.0,
        0.0,
        0.0,
        0.0,
        1.0
      ],
      "name": "05399c86c17f47f3a6eea6cd232751b2.fbx"
    },
    {
      "children": [
        3,
        5,
        7,
        9,
        11,
        13
      ],
      "name": "RootNode"
    },
    {
      "children": [
        4
      ],
      "matrix": [
        0.8033825159072876,
        0.0,
        0.0,
        0.0,
        0.0,
        1.0,
        0.0,
        0.0,
        0.0,
        0.0,
        0.8033825159072876,
        0.0,
        0.0,
        0.75,
        0.0,
        1.0
      ],
      "name": "pCube1"
    },
    {
      "mesh": 0,
      "name": "pCube1_lambert2_0"
    },
    {
      "children": [
        6
      ],
      "matrix": [
        0.8033825159072876,
        0.0,
        0.0,
        0.0,
        0.0,
        1.0,
        0.0,
        0.0,
        0.0,
        0.0,
        0.8033825159072876,
        0.0,
        0.0,
        0.75,
        0.0,
        1.0
      ],
      "name": "pCube2"
    },
    {
      "mesh": 1,
      "name": "pCube2_lambert3_0"
    },
    {
      "children": [
        8
      ],
      "matrix": [
        0.05000000074505806,
        0.0,
        0.0,
        0.0,
        0.0,
        0.5,
        0.0,
        0.0,
        0.0,
        0.0,
        0.05000000074505806,
        0.0,
        0.15000000596046448,
        0.25,
        0.0,
        1.0
      ],
      "name": "Ice_Cube_V2:pCube3"
    },
    {
      "mesh": 2,
      "name": "Ice_Cube_V2:pCube3_lambert4_0"
    },
    {
      "children": [
        10
      ],
      "matrix": [
        0.05000000074505806,
        0.0,
        0.0,
        0.0,
        0.0,
        0.5,
        0.0,
        0.0,
        0.0,
        0.0,
        0.05000000074505806,
        0.0,
        -0.15000000596046448,
        0.25,
        0.0,
        1.0
      ],
      "name": "Ice_Cube_V2:pCube4"
    },
    {
      "mesh": 3,
      "name": "Ice_Cube_V2:pCube4_lambert4_0"
    },
    {
      "children": [
        12
      ],
      "matrix": [
        -0.04062283047334477,
        -0.015285470991310182,
        -0.004854992597289672,
        0.0,
        0.17096245436072127,
        -0.400385416777469,
        -0.16990739136603158,
        0.0,
        0.0013978014451700741,
        -0.016545057893723156,
        0.040394778655480475,
        0.0,
        -0.46701106429100037,
        0.8065985441207886,
        0.10131531208753586,
        1.0
      ],
      "name": "Ice_Cube_V2:pCube6"
    },
    {
      "mesh": 4,
      "name": "Ice_Cube_V2:pCube6_lambert4_0"
    },
    {
      "children": [
        14
      ],
      "matrix": [
        -0.004854992597289732,
        -0.015285470991309908,
        0.04062283047334487,
        0.0,
        -0.16990739136603225,
        -0.40038541677746997,
        -0.17096245436071883,
        0.0,
        0.04039477865548044,
        -0.016545057893723243,
        -0.001397801445169936,
        0.0,
        0.4699999988079071,
        0.8065985441207886,
        0.10131531208753586,
        1.0
      ],
      "name": "pCube6"
    },
    {
      "mesh": 5,
      "name": "pCube6_lambert4_0"
    }
  ],
  "samplers": [
    {
      "magFilter": 9729,
      "minFilter": 9987,
      "wrapS": 10497,
      "wrapT": 10497
    }
  ],
  "scene": 0,
  "scenes": [
    {
      "name": "Sketchfab_Scene",
      "nodes": [
        0
      ]
    }
  ],
  "textures": [
    {
      "sampler": 0,
      "source": 0
    }
  ]
}
